P1
# minecraftP1.pbm created by PBMA_IO::PBMA_WRITE.
31  32
0  0  0  0  0  0  0  0  0  0  0  0  0  0  0  0  0  0  0  0  0  0  0  0  0  0  0  0  0  0  0  
0  0  0  0  0  0  0  0  0  0  0  0  0  0  0  0  0  0  0  0  0  0  0  1  1  1  1  1  1  0  0  
0  0  0  0  0  0  0  0  0  0  0  0  0  0  0  0  0  0  0  0  0  0  0  1  1  1  1  1  1  0  0  
0  0  0  0  0  0  0  0  0  0  0  0  0  0  0  0  0  0  0  0  0  1  1  1  0  0  1  1  1  0  0  
0  0  0  0  0  0  0  0  0  0  0  0  0  0  0  0  0  0  0  0  0  1  1  0  0  0  0  1  1  0  0  
0  0  0  0  0  0  0  0  0  0  0  0  0  0  0  0  0  0  0  1  1  1  0  0  0  0  0  1  1  0  0  
0  0  0  0  0  0  0  0  0  0  0  0  0  0  0  0  0  0  0  1  1  0  0  0  0  0  0  1  1  0  0  
0  0  0  0  0  0  0  0  0  0  0  0  0  0  0  0  0  1  1  0  0  0  0  0  0  1  1  0  1  0  0  
0  0  0  0  0  0  0  0  0  0  0  0  0  0  0  0  1  1  1  0  0  0  0  0  0  1  1  0  0  0  0  
0  0  0  0  0  1  1  0  0  0  0  0  0  0  0  1  0  1  0  0  0  0  0  1  0  1  1  0  0  0  0  
0  0  0  0  1  1  1  1  0  0  0  0  0  0  1  1  1  0  0  0  0  0  0  1  1  0  0  0  0  0  0  
0  0  0  0  1  1  1  1  1  0  0  0  1  0  0  1  0  0  0  0  0  0  0  1  1  0  0  0  0  0  0  
0  0  0  0  1  1  0  0  1  1  0  0  1  1  1  0  0  0  0  0  0  1  1  0  0  0  0  0  0  0  0  
0  0  0  0  1  1  0  1  1  1  1  0  1  1  0  0  0  0  0  0  0  1  1  0  0  0  0  0  0  0  0  
0  0  0  0  0  0  1  1  0  0  1  1  0  0  0  0  0  0  1  1  1  0  0  0  0  0  0  0  0  0  0  
0  0  0  0  0  0  1  1  0  0  1  1  0  0  0  0  0  1  0  1  1  0  0  0  0  0  0  0  0  0  0  
0  0  0  0  0  0  1  1  0  0  1  1  0  0  0  0  1  1  1  0  0  0  0  0  0  0  0  0  0  0  0  
0  0  0  0  0  0  1  1  1  0  1  1  1  1  0  0  0  1  0  0  0  0  0  0  0  0  0  0  0  0  0  
0  0  0  0  0  0  0  0  1  1  0  0  1  1  1  1  1  0  0  0  0  0  0  0  0  0  0  0  0  0  0  
0  0  0  0  0  0  0  0  1  1  0  0  1  1  1  1  1  0  0  0  0  0  0  0  0  0  0  0  0  0  0  
0  0  0  0  0  0  1  1  0  0  1  1  0  0  0  0  0  1  1  0  0  0  0  0  0  0  0  0  0  0  0  
0  0  0  0  0  0  1  1  0  0  1  1  1  0  0  0  1  1  1  0  0  0  0  0  0  0  0  0  0  0  0  
0  0  1  1  1  1  1  1  1  1  0  0  1  1  1  1  1  0  1  1  1  0  0  0  0  0  0  0  0  0  0  
0  0  1  1  1  1  1  1  1  1  0  0  1  1  1  1  0  0  0  1  1  0  0  0  0  0  0  0  0  0  0  
0  0  1  1  0  0  1  1  1  0  0  0  0  0  0  0  1  1  1  1  1  0  0  0  0  0  0  0  0  0  0  
0  0  1  1  0  0  1  1  0  0  0  0  0  0  0  0  0  1  1  1  1  0  0  0  0  0  0  0  0  0  0  
0  0  1  1  1  1  1  1  0  0  0  0  0  0  0  0  0  0  0  0  0  0  0  0  0  0  0  0  0  0  0  
0  0  1  1  1  1  1  1  0  0  0  0  0  0  0  0  0  0  0  0  0  0  0  0  0  0  0  0  0  0  0  
0  0  0  0  0  0  0  0  0  0  0  0  0  0  0  0  0  0  0  0  0  0  0  0  0  0  0  0  0  0  0  
0  0  0  0  0  0  0  0  0  0  0  0  0  0  0  0  0  0  0  0  0  0  0  0  0  0  0  0  0  0  0  
0  0  0  0  0  0  0  0  0  0  0  0  0  0  0  0  0  0  0  0  0  0  0  0  0  0  0  0  0  0  0  
0  0  0  0  0  0  0  0  0  0  0  0  0  0  0  0  0  0  0  0  0  0  0  0  0  0  0  0  0  0  0  
